<?xml version="1.0" encoding="UTF-8" standalone="no"?>
<svg
   version="1.1"
   viewBox="0 0 360 359.99999"
   id="svg6"
   sodipodi:docname="logo.svg"
   width="360"
   height="360"
   inkscape:version="1.4 (e7c3feb100, 2024-10-09)"
   xmlns:inkscape="http://www.inkscape.org/namespaces/inkscape"
   xmlns:sodipodi="http://sodipodi.sourceforge.net/DTD/sodipodi-0.dtd"
   xmlns="http://www.w3.org/2000/svg"
   xmlns:svg="http://www.w3.org/2000/svg">
  <sodipodi:namedview
     id="namedview6"
     pagecolor="#ffffff"
     bordercolor="#666666"
     borderopacity="1.0"
     inkscape:showpageshadow="2"
     inkscape:pageopacity="0.0"
     inkscape:pagecheckerboard="0"
     inkscape:deskcolor="#d1d1d1"
     inkscape:zoom="1.4363935"
     inkscape:cx="139.58571"
     inkscape:cy="103.73202"
     inkscape:current-layer="svg6" />
  <defs
     id="defs1">
    <style
       id="style1">
      .cls-1 {
        fill: #909d8d;
      }
    </style>
  </defs>
  <!-- Generator: Adobe Illustrator 28.7.3, SVG Export Plug-In . SVG Version: 1.2.0 Build 164)  -->
  <g
     id="g6"
     transform="translate(0,81.755)">
    <g
       id="Layer_1">
      <g
         id="g5">
        <path
           class="cls-1"
           d="M 117.95,7.15 C 117.04,5.21 115.59,3.53 113.62,2.12 111.65,0.71 109.65,0 107.63,0 H 32.36 L 16.72,21.96 h 102.52 c 0.51,-6.97 0.09,-11.91 -1.29,-14.81 z"
           id="path1" />
        <polygon
           class="cls-1"
           points="201.41,0 168.08,0 147.4,22.23 204.55,22.23 "
           id="polygon1" />
        <path
           class="cls-1"
           d="m 288.64,46.25 c -2.97,8.09 -8.45,14.29 -16.44,18.59 -4.97,2.72 -9.65,4.08 -14.06,4.08 -2.39,0 -4.6,-0.43 -6.65,-1.31 l 11.5,-30.92 H 230.51 L 213.33,84.4 206.62,36.69 H 134.63 L 96.21,81.62 c 2.7,-6.83 4.26,-11.12 4.64,-12.74 0.89,-3.71 1.41,-6.59 1.56,-8.62 0.26,-3.53 -0.51,-6.89 -2.31,-10.08 1.72,-0.53 3.89,-1.89 6.52,-4.1 3.66,-3 6.27,-6.14 8.06,-9.39 H 20 L 0,91.28 H 30.82 L 44.74,54.77 H 75.96 L 62.7,91.28 h 64.02 l 29.24,-36.12 h 18.79 l 6.35,36.12 h 82.28 c 12.08,0 22.31,-2.95 30.67,-8.85 4.19,-2.98 8.97,-8.04 14.34,-15.18 5.76,-7.62 9.31,-17.91 10.93,-30.56 h -28.33 c -0.62,3.56 -1.36,6.86 -2.36,9.56 z"
           id="path2" />
        <path
           class="cls-1"
           d="M 312.31,6.81 C 307.62,2.27 302.36,0 296.53,0 h -53.31 l -15.79,22.23 h 91.68 C 319.26,16.49 317,11.36 312.31,6.81 Z"
           id="path3" />
        <path
           class="cls-1"
           d="M 134.98,105.21 H 74.13 c -5.38,0 -10.76,2.43 -16.14,7.28 -4.82,4.33 -8.27,9.31 -10.37,14.95 h 79.25 z"
           id="path4" />
        <polygon
           class="cls-1"
           points="214.75,105.21 181.42,105.21 160.73,127.44 217.89,127.44 "
           id="polygon4" />
        <polygon
           class="cls-1"
           points="255.23,105.21 247.39,127.44 352.16,127.44 360,105.21 327.07,105.21 300.48,122.81 286.19,105.21 "
           id="polygon5" />
        <path
           class="cls-1"
           d="m 226.39,187.61 -6.5,-46.24 h -71.46 l -44.87,52.49 7.75,-21.97 H 70.83 c -2.43,-0.53 -3.99,-1.57 -4.67,-3.15 -0.17,-1.24 -0.35,-2.42 -0.52,-3.56 l 9.52,-23.8 H 42.72 l -8.2,24.24 c -0.46,2.55 -0.76,4.31 -0.91,5.28 -0.81,5.02 -0.7,8.94 0.32,11.76 3.29,9.24 12.21,13.86 26.77,13.86 h 79.37 l 29.24,-36.12 h 18.79 l 6.35,36.12 h 59.39 l 19.33,-54.37 14.39,18.12 26.48,-18.12 -19.07,54.37 h 32.94 l 19.6,-55.12 H 242.63 l -16.24,46.24 z"
           id="path5" />
      </g>
    </g>
  </g>
</svg>
